<svg width="198" height="170" viewBox="0 0 198 170" fill="none" xmlns="http://www.w3.org/2000/svg">
<path d="M198 85C198 80.7566 196.314 76.6869 193.314 73.6863C190.313 70.6857 186.244 69 182 69H55.28L97.3067 26.9734C100.133 23.9403 101.672 19.9286 101.598 15.7835C101.525 11.6384 99.8461 7.68357 96.9146 4.75209C93.9832 1.82061 90.0283 0.141424 85.8832 0.0682886C81.7381 -0.00484665 77.7264 1.53378 74.6934 4.36002L5.36004 73.6934C2.36376 76.6934 0.680786 80.76 0.680786 85C0.680786 89.24 2.36376 93.3067 5.36004 96.3067L74.6934 165.64C77.7264 168.466 81.7381 170.005 85.8832 169.932C90.0283 169.859 93.9832 168.179 96.9146 165.248C99.8461 162.316 101.525 158.362 101.598 154.216C101.672 150.071 100.133 146.06 97.3067 143.027L55.28 101H182C186.244 101 190.313 99.3143 193.314 96.3137C196.314 93.3132 198 89.2435 198 85Z" fill="white"/>
</svg>
