<svg width="198" height="170" viewBox="0 0 198 170" fill="none" xmlns="http://www.w3.org/2000/svg">
<path d="M0 85C0 80.7566 1.68571 76.6869 4.68629 73.6863C7.68687 70.6857 11.7565 69 16 69H142.72L100.693 26.9734C97.8671 23.9403 96.3285 19.9286 96.4016 15.7835C96.4747 11.6384 98.1539 7.68357 101.085 4.75209C104.017 1.82061 107.972 0.141424 112.117 0.0682886C116.262 -0.00484665 120.274 1.53378 123.307 4.36002L192.64 73.6934C195.636 76.6934 197.319 80.76 197.319 85C197.319 89.24 195.636 93.3067 192.64 96.3067L123.307 165.64C120.274 168.466 116.262 170.005 112.117 169.932C107.972 169.859 104.017 168.179 101.085 165.248C98.1539 162.316 96.4747 158.362 96.4016 154.216C96.3285 150.071 97.8671 146.06 100.693 143.027L142.72 101H16C11.7565 101 7.68687 99.3143 4.68629 96.3137C1.68571 93.3132 0 89.2435 0 85Z" fill="white"/>
</svg>
