<?xml version="1.0" ?><svg data-name="Layer 1" id="Layer_1" viewBox="0 0 24 24" xmlns="http://www.w3.org/2000/svg"><defs><style>.cls-1{fill:#b47250;}</style></defs><path class="cls-1" d="M21.93,15.59a.85.85,0,0,0-.27-.13.52.52,0,0,0-.41.16,5.45,5.45,0,0,0-1.12-2.56,5.35,5.35,0,0,0-1.53-1.31l-1.23-.51a8,8,0,0,0-1.8-4.3,3.15,3.15,0,0,0-1.38-1,2.8,2.8,0,0,0-3.1.81,1.51,1.51,0,0,0-.18.37,3.48,3.48,0,0,1-.39,1A4.93,4.93,0,0,1,9.13,9.38c-1.09.87-1.65,1.3-1.88,1.87A4.74,4.74,0,0,0,7,12c0,.13-.07.26-.1.37a.64.64,0,0,1,.18.06l.62.27h0c.12.07.18.11.19.17v0a.29.29,0,0,1-.08.17l-.11.1A2,2,0,0,0,7,14.41a.38.38,0,0,0,.06.26c.07.16.21.3.31.29A.86.86,0,0,0,8,14.37c.09-.22,0-.3-.17-.42s-.29-.3-.13-.48a3.8,3.8,0,0,1,1.2-1l.16-.06,0,0a4.31,4.31,0,0,0,1-.18c.58-.19.84-.81,1.43-1.67A13.16,13.16,0,0,1,12.81,9a10.32,10.32,0,0,0,1.36,1.86c1.15,1.27,2.13,1.73,4.38,3.29.56.39,1.42,1,2.45,1.78-.05.48-.11,1-.16,1.44a.47.47,0,0,1-.24.35l0,0-.43,0s0,.48.37.44l.12,0,.27-.06.33,0c.11,0,.28-.09.32-.5s.1-.62.21-.8.21-.29.35-.51A.49.49,0,0,0,21.93,15.59Z"/><path class="cls-1" d="M7,14.84a.61.61,0,0,1-.13-.33A1.46,1.46,0,0,1,7,13.93a1.1,1.1,0,0,1,.06-.12c0-.09.1-.14.16-.24a1.51,1.51,0,0,0,.1-.17c.16-.27.26-.3.26-.38a.07.07,0,0,0,0-.06c-.06-.07-.22-.18-.73-.3h0l-.38-.08-.12,0-.17,0a2.27,2.27,0,0,0-.58,0c-.4,0-1.35.26-1.48.8,0,.24.21.56.75,1.09l.67.64.12.11C4.93,16,4.36,17,4,17.44a0,0,0,0,0,0,0,2.63,2.63,0,0,0-1,.2l-.29.13L1.79,18a.23.23,0,0,0,.24.25h.45c.14,0,.46-.06.66-.09a.65.65,0,0,1,.24,0,2.15,2.15,0,0,0,.49,0,.7.7,0,0,0,.6-.35,24.76,24.76,0,0,0,2.06-2.36,1.38,1.38,0,0,0,.8-.36A1,1,0,0,1,7,14.84Z"/></svg>