<?xml version="1.0" ?><svg data-name="Layer 1" id="Layer_1" viewBox="0 0 24 24" xmlns="http://www.w3.org/2000/svg"><defs><style>.cls-1{fill:#b47250;}</style></defs><path class="cls-1" d="M14.48,4.84a6,6,0,0,0-.84-1.21c-.27-.31-.49-.48-.82-.87h0l-.69-.15-.23-.09a1.43,1.43,0,0,0-1-.12h-.07A6,6,0,0,0,8.33,3.57a2.28,2.28,0,0,0-.12.3A.77.77,0,0,0,7.82,4a1,1,0,0,0-.46.72A.72.72,0,0,1,8,4.87a1,1,0,0,1,.2.42h0a.39.39,0,0,1,0,.11c0,.07,0,.13,0,.22s0,.09,0,.15c0,.25,0,.32,0,.37s.14.09.65-.15l.29-.14a1.89,1.89,0,0,0,.57-.38c.22-.22.7-.83.51-1.22C10.19,4.1,9.9,4,9.38,4a3.45,3.45,0,0,0,.75-.45,3.7,3.7,0,0,0,.77-.82c.1.2.2.26.28.28a.85.85,0,0,0,.37,0,.44.44,0,0,1,.2,0,3.74,3.74,0,0,0,.53.06h.41c0,.1,0,.23.22.36a1.72,1.72,0,0,0,0,.34c.06.45.41.55.35.85-.14.66.24.8.5.8l.36-.22A4.05,4.05,0,0,0,14.6,8a3.72,3.72,0,0,0,1,1,3,3,0,0,1-1.63.59c-1,0-1.57-.57-2.44-.33a2,2,0,0,0-.86.54l-.53,0,0,0,0-.06,0-.06,0,0a2.4,2.4,0,0,1-.42-1.22,3.62,3.62,0,0,0-.15-.93,2.81,2.81,0,0,0-.24-.58v0c0-.27,0-.56,0-.85a2.59,2.59,0,0,1-.69.31s0,0-.06,0a.2.2,0,0,0-.1,0c-.27.09-.32,0-.26-.27a1.76,1.76,0,0,0,0-.45A1.71,1.71,0,0,0,7.91,5c-.07-.14-.42-.25-.5-.16a.65.65,0,0,0-.08.66c0,.19.17.17.31.18s.32,0,.31.24,0,.21,0,.31-.13.32-.19.45a3.54,3.54,0,0,0-.67,1.63,1.51,1.51,0,0,0,.39.93A11.25,11.25,0,0,0,9.78,11.6a45.33,45.33,0,0,0,.52,9l-1,.44-.71.2H8.27s-.06.37.25.37.15-.05.15-.05a4.44,4.44,0,0,0,.56.05c.24,0,.69-.09.95-.09s.16.09.44.09a.43.43,0,0,0,.24-.07.48.48,0,0,0,.15-.37v0c0-.08,0-.26-.33-.54a5.06,5.06,0,0,0,.54-4.42l.12-.23A6.23,6.23,0,0,0,12,13.44a6.05,6.05,0,0,0-.11-1.36,8.86,8.86,0,0,0,1.36-.19,5,5,0,0,0,3.12-1.51,2.35,2.35,0,0,0,.54-1C17.16,8.09,15.94,7.28,14.48,4.84Z"/></svg>