<?xml version="1.0" ?><svg data-name="Layer 1" id="Layer_1" viewBox="0 0 24 24" xmlns="http://www.w3.org/2000/svg"><defs><style>.cls-1{fill:#b47250;}</style></defs><path class="cls-1" d="M20.46,8.15c-.14-.09-.14-.18-.27-.23a.48.48,0,0,0-.33,0A9.85,9.85,0,0,1,17,8c-.64-.07-.42-.14-1.48-.32a7.18,7.18,0,0,0-2-.19c-.66.08-.81.29-1.07.13s-.33-.5-.47-1.21a.19.19,0,0,1,0-.13c0-.1.17-.13.27-.16s.27,0,.29-.24a.69.69,0,0,0-.21-.66c-.09-.08-.43.1-.47.25a1.6,1.6,0,0,0,0,1.14c.1.23.07.37-.22.32s-.21,0-.21.18a2.7,2.7,0,0,1,0,.49h-.14a7.82,7.82,0,0,0-1.53,0,4.58,4.58,0,0,0-.64.11C8.52,7.86,8.11,8,8,8c-1.41.43-3.29-.13-3.8.16a.78.78,0,0,1-.4.14c-.19,0-.31,0-.32,0s.2.2.45.23a.54.54,0,0,0,.25,0,2.08,2.08,0,0,0,.3-.13.59.59,0,0,1,.33,0,17.78,17.78,0,0,0,2,.42,3.64,3.64,0,0,0,.51,0,9.2,9.2,0,0,1,1.84-.09,1.62,1.62,0,0,1,1,.36,1.61,1.61,0,0,1,.32.48,2.87,2.87,0,0,1,.31,1.16A2.69,2.69,0,0,1,10.54,12c-.33.73-1,.84-1.89,1.39a11.83,11.83,0,0,0-2.74,2.8c-1,1.19-1,1.46-1.57,1.74a2.52,2.52,0,0,0-1.12.88c-.05.1-.18.35-.08.53a.38.38,0,0,0,.2.17c.31.12.66.16.78-.3S4.6,18.52,5.3,18a4.9,4.9,0,0,1,.48-.34,14,14,0,0,1,1.75-.92c1.14-.55,1.07-.84,2.15-1.37a7.72,7.72,0,0,1,1.51-.56h0l.76,0h0l.41.11a11.29,11.29,0,0,0,1.4.26,5.11,5.11,0,0,0,1.84-.21,3.87,3.87,0,0,0-.24,1.79,3.78,3.78,0,0,0,.76,1.87c-.39.27-.45.45-.46.55h0a.51.51,0,0,0,.17.41.37.37,0,0,0,.25.08c.3,0,.19-.1.47-.1s.76.1,1,.1a5.26,5.26,0,0,0,.6-.05s0,.05.16.05.26-.4.26-.4h-.36L17.47,19l-.91-.46a28.08,28.08,0,0,0,.49-3.33A1.89,1.89,0,0,0,16.83,14c-.15-.22-.39-.43-1.23-.72-1.52-.52-2.12-.31-2.41-.78a1.7,1.7,0,0,1,0-1.31c.2-.66.55-.93.56-1.56A1.9,1.9,0,0,0,13.7,9h0c.15,0,.38,0,.65,0a12.84,12.84,0,0,0,1.56-.21,5,5,0,0,1,.9-.06,3.37,3.37,0,0,0,.46,0c.73-.11.86,0,1.41-.17s.8-.2.8-.2c.28-.09.38-.14.54-.11s.28.15.52.16a.49.49,0,0,0,.36-.09S20.67,8.3,20.46,8.15Z"/><path class="cls-1" d="M10.06,6.29a2.9,2.9,0,0,0,1,.37c.57.16.67.08.69,0s0-.12,0-.38a.86.86,0,0,0,0-.16,2,2,0,0,1,0-.23V5.82a1.19,1.19,0,0,1,.13-.48.71.71,0,0,1,.57-.27,1,1,0,0,0-.6-.66,1.16,1.16,0,0,0-.75,0c-1.08.29-1.62.43-1.69.68C9.19,5.57,9.79,6.1,10.06,6.29Z"/></svg>