<svg width="380" height="112" viewBox="0 0 380 112" fill="none" xmlns="http://www.w3.org/2000/svg">
<g filter="url(#filter0_d_16_17)">
<path d="M10 5C146.684 5 223.316 5 360 5C319.667 39.2185 322.727 57.0042 360 87C223.316 87 146.684 87 10 87C44.5949 57.0279 54.4416 39.7954 10 5Z" fill="#E2AEEA"/>
<path d="M40.1362 47.8581C41.3744 35.3803 32.8273 22.4535 11.4426 5.5H11.599H12.3965H13.1926H13.9873H14.7807H15.5728H16.3635H17.1529H17.941H18.7277H19.5131H20.2973H21.0801H21.8616H22.6418H23.4207H24.1984H24.9748H25.7499H26.5237H27.2963H28.0676H28.8376H29.6065H30.374H31.1404H31.9055H32.6694H33.4321H34.1935H34.9538H35.7128H36.4707H37.2273H37.9828H38.7371H39.4902H40.2421H40.9929H41.7425H42.491H43.2383H43.9845H44.7295H45.4734H46.2162H46.9578H47.6984H48.4378H49.1761H49.9133H50.6494H51.3845H52.1184H52.8513H53.5831H54.3138H55.0435H55.7721H56.4996H57.2261H57.9516H58.676H59.3994H60.1218H60.8431H61.5635H62.2828H63.0011H63.7184H64.4348H65.1501H65.8645H66.5779H67.2903H68.0017H68.7122H69.4217H70.1303H70.8379H71.5446H72.2504H72.9552H73.6591H74.3621H75.0642H75.7654H76.4656H77.165H77.8635H78.5611H79.2578H79.9536H80.6486H81.3427H82.0359H82.7283H83.4199H84.1106H84.8004H85.4895H86.1777H86.8651H87.5516H88.2374H88.9223H89.6065H90.2898H90.9724H91.6542H92.3352H93.0154H93.6949H94.3736H95.0515H95.7287H96.4052H97.0809H97.7558H98.4301H99.1036H99.7764H100.448H101.12H101.79H102.46H103.13H103.798H104.466H105.133H105.8H106.466H107.131H107.796H108.46H109.123H109.786H110.448H111.109H111.77H112.43H113.089H113.748H114.407H115.064H115.722H116.378H117.034H117.689H118.344H118.999H119.652H120.305H120.958H121.61H122.262H122.913H123.563H124.213H124.862H125.511H126.16H126.808H127.455H128.102H128.749H129.395H130.04H130.685H131.33H131.974H132.617H133.261H133.903H134.546H135.188H135.829H136.47H137.111H137.751H138.391H139.031H139.67H140.308H140.947H141.584H142.222H142.859H143.496H144.132H144.769H145.404H146.04H146.675H147.31H147.944H148.578H149.212H149.846H150.479H151.112H151.744H152.377H153.009H153.641H154.272H154.903H155.534H156.165H156.796H157.426H158.056H158.686H159.315H159.945H160.574H161.203H161.831H162.46H163.088H163.717H164.344H164.972H165.6H166.227H166.855H167.482H168.109H168.736H169.362H169.989H170.615H171.242H171.868H172.494H173.12H173.746H174.371H174.997H175.623H176.248H176.874H177.499H178.124H178.75H179.375H180H180.625H181.25H181.875H182.5H183.125H183.75H184.375H185H185.625H186.25H186.875H187.5H188.125H188.75H189.375H190H190.625H191.25H191.876H192.501H193.126H193.752H194.377H195.003H195.629H196.254H196.88H197.506H198.132H198.758H199.385H200.011H200.638H201.264H201.891H202.518H203.145H203.773H204.4H205.028H205.656H206.283H206.912H207.54H208.169H208.797H209.426H210.055H210.685H211.314H211.944H212.574H213.204H213.835H214.466H215.097H215.728H216.359H216.991H217.623H218.256H218.888H219.521H220.154H220.788H221.422H222.056H222.69H223.325H223.96H224.596H225.231H225.868H226.504H227.141H227.778H228.416H229.053H229.692H230.33H230.969H231.609H232.249H232.889H233.53H234.171H234.812H235.454H236.097H236.739H237.383H238.026H238.67H239.315H239.96H240.605H241.251H241.898H242.545H243.192H243.84H244.489H245.138H245.787H246.437H247.087H247.738H248.39H249.042H249.695H250.348H251.001H251.656H252.311H252.966H253.622H254.278H254.936H255.593H256.252H256.911H257.57H258.23H258.891H259.552H260.214H260.877H261.54H262.204H262.869H263.534H264.2H264.867H265.534H266.202H266.87H267.54H268.21H268.88H269.552H270.224H270.896H271.57H272.244H272.919H273.595H274.271H274.948H275.626H276.305H276.985H277.665H278.346H279.028H279.71H280.394H281.078H281.763H282.448H283.135H283.822H284.511H285.2H285.889H286.58H287.272H287.964H288.657H289.351H290.046H290.742H291.439H292.137H292.835H293.534H294.235H294.936H295.638H296.341H297.045H297.75H298.455H299.162H299.87H300.578H301.288H301.998H302.71H303.422H304.136H304.85H305.565H306.282H306.999H307.717H308.437H309.157H309.878H310.601H311.324H312.048H312.774H313.5H314.228H314.957H315.686H316.417H317.149H317.882H318.616H319.351H320.087H320.824H321.562H322.302H323.042H323.784H324.527H325.27H326.016H326.762H327.509H328.257H329.007H329.758H330.51H331.263H332.017H332.773H333.529H334.287H335.046H335.806H336.568H337.331H338.095H338.86H339.626H340.394H341.162H341.932H342.704H343.476H344.25H345.025H345.802H346.579H347.358H348.138H348.92H349.703H350.487H351.272H352.059H352.847H353.636H354.427H355.219H356.013H356.807H357.604H358.401H358.643C349.072 13.705 342.004 20.9865 337.332 27.746C332.49 34.751 330.202 41.2232 330.398 47.5988C330.593 53.9733 333.269 60.1765 338.206 66.6483C342.945 72.8597 349.789 79.3457 358.587 86.5H358.401H357.604H356.807H356.013H355.219H354.427H353.636H352.847H352.059H351.272H350.487H349.703H348.92H348.138H347.358H346.579H345.802H345.025H344.25H343.476H342.704H341.932H341.162H340.394H339.626H338.86H338.095H337.331H336.568H335.806H335.046H334.287H333.529H332.773H332.017H331.263H330.51H329.758H329.007H328.257H327.509H326.762H326.016H325.27H324.527H323.784H323.042H322.302H321.562H320.824H320.087H319.351H318.616H317.882H317.149H316.417H315.686H314.957H314.228H313.5H312.774H312.048H311.324H310.601H309.878H309.157H308.437H307.717H306.999H306.282H305.565H304.85H304.136H303.422H302.71H301.998H301.288H300.578H299.87H299.162H298.455H297.75H297.045H296.341H295.638H294.936H294.235H293.534H292.835H292.137H291.439H290.742H290.046H289.351H288.657H287.964H287.272H286.58H285.889H285.2H284.511H283.822H283.135H282.448H281.763H281.078H280.394H279.71H279.028H278.346H277.665H276.985H276.305H275.626H274.948H274.271H273.595H272.919H272.244H271.57H270.896H270.224H269.552H268.88H268.21H267.54H266.87H266.202H265.534H264.867H264.2H263.534H262.869H262.204H261.54H260.877H260.214H259.552H258.891H258.23H257.57H256.911H256.252H255.593H254.936H254.278H253.622H252.966H252.311H251.656H251.001H250.348H249.695H249.042H248.39H247.738H247.087H246.437H245.787H245.138H244.489H243.84H243.192H242.545H241.898H241.251H240.605H239.96H239.315H238.67H238.026H237.383H236.739H236.097H235.454H234.812H234.171H233.53H232.889H232.249H231.609H230.969H230.33H229.692H229.053H228.416H227.778H227.141H226.504H225.868H225.231H224.596H223.96H223.325H222.69H222.056H221.422H220.788H220.154H219.521H218.888H218.256H217.623H216.991H216.359H215.728H215.097H214.466H213.835H213.204H212.574H211.944H211.314H210.685H210.055H209.426H208.797H208.169H207.54H206.912H206.283H205.656H205.028H204.4H203.773H203.145H202.518H201.891H201.264H200.638H200.011H199.385H198.758H198.132H197.506H196.88H196.254H195.629H195.003H194.377H193.752H193.126H192.501H191.876H191.25H190.625H190H189.375H188.75H188.125H187.5H186.875H186.25H185.625H185H184.375H183.75H183.125H182.5H181.875H181.25H180.625H180H179.375H178.75H178.124H177.499H176.874H176.248H175.623H174.997H174.371H173.746H173.12H172.494H171.868H171.242H170.615H169.989H169.362H168.736H168.109H167.482H166.855H166.227H165.6H164.972H164.344H163.717H163.088H162.46H161.831H161.203H160.574H159.945H159.315H158.686H158.056H157.426H156.796H156.165H155.534H154.903H154.272H153.641H153.009H152.377H151.744H151.112H150.479H149.846H149.212H148.578H147.944H147.31H146.675H146.04H145.404H144.769H144.132H143.496H142.859H142.222H141.584H140.947H140.308H139.67H139.031H138.391H137.751H137.111H136.47H135.829H135.188H134.546H133.903H133.261H132.617H131.974H131.33H130.685H130.04H129.395H128.749H128.102H127.455H126.808H126.16H125.511H124.862H124.213H123.563H122.913H122.262H121.61H120.958H120.305H119.652H118.999H118.344H117.689H117.034H116.378H115.722H115.064H114.407H113.748H113.089H112.43H111.77H111.109H110.448H109.786H109.123H108.46H107.796H107.131H106.466H105.8H105.133H104.466H103.798H103.13H102.46H101.79H101.12H100.448H99.7764H99.1036H98.4301H97.7558H97.0809H96.4052H95.7287H95.0515H94.3736H93.6949H93.0154H92.3352H91.6542H90.9724H90.2898H89.6065H88.9223H88.2374H87.5516H86.8651H86.1777H85.4895H84.8004H84.1106H83.4199H82.7283H82.0359H81.3427H80.6486H79.9536H79.2578H78.5611H77.8635H77.165H76.4656H75.7654H75.0642H74.3621H73.6591H72.9552H72.2504H71.5446H70.8379H70.1303H69.4217H68.7122H68.0017H67.2903H66.5779H65.8645H65.1501H64.4348H63.7184H63.0011H62.2828H61.5635H60.8431H60.1218H59.3994H58.676H57.9516H57.2261H56.4996H55.7721H55.0435H54.3138H53.5831H52.8513H52.1184H51.3845H50.6494H49.9133H49.1761H48.4378H47.6984H46.9578H46.2162H45.4734H44.7295H43.9845H43.2383H42.491H41.7425H40.9929H40.2421H39.4902H38.7371H37.9828H37.2273H36.4707H35.7128H34.9538H34.1935H33.4321H32.6694H31.9055H31.1404H30.374H29.6065H28.8376H28.0676H27.2963H26.5237H25.7499H24.9748H24.1984H23.4207H22.6418H21.8616H21.0801H20.2973H19.5131H18.7277H17.941H17.1529H16.3635H15.5728H14.7807H13.9873H13.1926H12.3965H11.599H11.3378C19.5359 79.3551 26.312 72.9087 31.2349 66.7483C36.3591 60.336 39.5075 54.1946 40.1362 47.8581Z" stroke="#1A1A15"/>
</g>
<path d="M97.99 36.76C101.83 36.76 104.67 37.66 106.51 39.46C108.37 41.24 109.3 43.8 109.3 47.14C109.3 49.32 108.84 51.23 107.92 52.87C107.02 54.49 105.71 55.75 103.99 56.65C102.27 57.55 100.18 58 97.72 58C97.42 58 97.01 57.99 96.49 57.97C95.99 57.95 95.46 57.94 94.9 57.94C94.36 57.92 93.86 57.91 93.4 57.91C92.58 57.91 91.78 57.92 91 57.94C90.22 57.94 89.58 57.96 89.08 58V57.4C89.74 57.36 90.23 57.28 90.55 57.16C90.89 57.04 91.11 56.8 91.21 56.44C91.33 56.08 91.39 55.54 91.39 54.82V39.94C91.39 39.2 91.33 38.66 91.21 38.32C91.11 37.96 90.89 37.72 90.55 37.6C90.23 37.46 89.74 37.38 89.08 37.36V36.76C89.58 36.78 90.22 36.81 91 36.85C91.78 36.87 92.56 36.87 93.34 36.85C94.06 36.83 94.87 36.81 95.77 36.79C96.67 36.77 97.41 36.76 97.99 36.76ZM97.72 37.3C96.8 37.3 96.2 37.47 95.92 37.81C95.64 38.15 95.5 38.84 95.5 39.88V54.88C95.5 55.92 95.64 56.61 95.92 56.95C96.22 57.29 96.83 57.46 97.75 57.46C99.61 57.46 101.06 57.07 102.1 56.29C103.16 55.49 103.9 54.33 104.32 52.81C104.76 51.29 104.98 49.44 104.98 47.26C104.98 45.02 104.74 43.17 104.26 41.71C103.8 40.23 103.04 39.13 101.98 38.41C100.92 37.67 99.5 37.3 97.72 37.3ZM115.234 34.84C115.954 34.84 116.544 35.04 117.004 35.44C117.464 35.84 117.694 36.37 117.694 37.03C117.694 37.69 117.464 38.22 117.004 38.62C116.544 39.02 115.954 39.22 115.234 39.22C114.514 39.22 113.924 39.02 113.464 38.62C113.004 38.22 112.774 37.69 112.774 37.03C112.774 36.37 113.004 35.84 113.464 35.44C113.924 35.04 114.514 34.84 115.234 34.84ZM117.334 42.16V55.21C117.334 56.05 117.484 56.62 117.784 56.92C118.104 57.22 118.634 57.37 119.374 57.37V58C119.014 57.98 118.464 57.96 117.724 57.94C116.984 57.9 116.234 57.88 115.474 57.88C114.734 57.88 113.984 57.9 113.224 57.94C112.464 57.96 111.894 57.98 111.514 58V57.37C112.254 57.37 112.774 57.22 113.074 56.92C113.394 56.62 113.554 56.05 113.554 55.21V45.79C113.554 44.87 113.404 44.2 113.104 43.78C112.824 43.34 112.294 43.12 111.514 43.12V42.49C112.154 42.55 112.774 42.58 113.374 42.58C114.114 42.58 114.814 42.55 115.474 42.49C116.154 42.41 116.774 42.3 117.334 42.16ZM126.473 42.07C127.313 42.07 128.033 42.19 128.633 42.43C129.233 42.67 129.673 42.88 129.953 43.06C130.633 43.56 131.043 43.24 131.183 42.1H131.843C131.803 42.68 131.773 43.37 131.753 44.17C131.733 44.95 131.723 46 131.723 47.32H131.063C130.963 46.58 130.773 45.86 130.493 45.16C130.213 44.46 129.803 43.88 129.263 43.42C128.723 42.94 128.013 42.7 127.133 42.7C126.513 42.7 125.993 42.88 125.573 43.24C125.173 43.6 124.973 44.11 124.973 44.77C124.973 45.37 125.153 45.9 125.513 46.36C125.873 46.8 126.333 47.22 126.893 47.62C127.473 48 128.073 48.42 128.693 48.88C129.413 49.36 130.053 49.85 130.613 50.35C131.173 50.83 131.623 51.37 131.963 51.97C132.303 52.55 132.473 53.24 132.473 54.04C132.473 54.96 132.213 55.75 131.693 56.41C131.193 57.05 130.523 57.55 129.683 57.91C128.863 58.25 127.953 58.42 126.953 58.42C126.413 58.42 125.923 58.37 125.483 58.27C125.043 58.17 124.653 58.04 124.313 57.88C124.053 57.74 123.813 57.61 123.593 57.49C123.393 57.37 123.183 57.27 122.963 57.19C122.763 57.09 122.583 57.13 122.423 57.31C122.283 57.49 122.173 57.79 122.093 58.21H121.433C121.473 57.57 121.503 56.79 121.523 55.87C121.543 54.95 121.553 53.73 121.553 52.21H122.213C122.353 53.31 122.563 54.28 122.843 55.12C123.143 55.94 123.573 56.59 124.133 57.07C124.693 57.53 125.413 57.76 126.293 57.76C126.673 57.76 127.033 57.68 127.373 57.52C127.733 57.36 128.023 57.11 128.243 56.77C128.483 56.43 128.603 55.97 128.603 55.39C128.603 54.51 128.303 53.78 127.703 53.2C127.103 52.62 126.353 52 125.453 51.34C124.773 50.84 124.133 50.35 123.533 49.87C122.953 49.39 122.473 48.85 122.093 48.25C121.733 47.65 121.553 46.94 121.553 46.12C121.553 45.22 121.783 44.48 122.243 43.9C122.703 43.3 123.303 42.85 124.043 42.55C124.803 42.23 125.613 42.07 126.473 42.07ZM142.134 42.07C142.874 42.07 143.554 42.16 144.174 42.34C144.814 42.5 145.364 42.73 145.824 43.03C146.304 43.33 146.684 43.71 146.964 44.17C147.244 44.61 147.384 45.1 147.384 45.64C147.384 46.3 147.184 46.83 146.784 47.23C146.384 47.63 145.884 47.83 145.284 47.83C144.664 47.83 144.154 47.65 143.754 47.29C143.374 46.93 143.184 46.45 143.184 45.85C143.184 45.27 143.354 44.79 143.694 44.41C144.034 44.03 144.444 43.78 144.924 43.66C144.744 43.4 144.464 43.19 144.084 43.03C143.704 42.85 143.284 42.76 142.824 42.76C142.224 42.76 141.684 42.92 141.204 43.24C140.724 43.54 140.304 44 139.944 44.62C139.604 45.22 139.334 45.97 139.134 46.87C138.954 47.75 138.864 48.77 138.864 49.93C138.864 51.55 139.054 52.83 139.434 53.77C139.834 54.71 140.344 55.38 140.964 55.78C141.584 56.16 142.244 56.35 142.944 56.35C143.364 56.35 143.814 56.27 144.294 56.11C144.774 55.95 145.244 55.68 145.704 55.3C146.184 54.92 146.614 54.38 146.994 53.68L147.564 53.89C147.344 54.59 146.984 55.29 146.484 55.99C146.004 56.69 145.374 57.27 144.594 57.73C143.814 58.19 142.864 58.42 141.744 58.42C140.464 58.42 139.304 58.13 138.264 57.55C137.224 56.95 136.394 56.05 135.774 54.85C135.174 53.65 134.874 52.16 134.874 50.38C134.874 48.62 135.184 47.13 135.804 45.91C136.424 44.67 137.284 43.72 138.384 43.06C139.504 42.4 140.754 42.07 142.134 42.07ZM156.869 42.07C158.249 42.07 159.469 42.35 160.529 42.91C161.609 43.45 162.459 44.32 163.079 45.52C163.719 46.72 164.039 48.3 164.039 50.26C164.039 52.22 163.719 53.8 163.079 55C162.459 56.2 161.609 57.07 160.529 57.61C159.469 58.15 158.249 58.42 156.869 58.42C155.489 58.42 154.259 58.15 153.179 57.61C152.099 57.07 151.249 56.2 150.629 55C150.009 53.8 149.699 52.22 149.699 50.26C149.699 48.3 150.009 46.72 150.629 45.52C151.249 44.32 152.099 43.45 153.179 42.91C154.259 42.35 155.489 42.07 156.869 42.07ZM156.869 42.67C155.929 42.67 155.159 43.27 154.559 44.47C153.979 45.65 153.689 47.58 153.689 50.26C153.689 52.94 153.979 54.87 154.559 56.05C155.159 57.23 155.929 57.82 156.869 57.82C157.789 57.82 158.549 57.23 159.149 56.05C159.749 54.87 160.049 52.94 160.049 50.26C160.049 47.58 159.749 45.65 159.149 44.47C158.549 43.27 157.789 42.67 156.869 42.67ZM179.904 42.49V43.12C179.524 43.2 179.164 43.41 178.824 43.75C178.504 44.09 178.194 44.69 177.894 45.55L173.304 58.09C173.064 58.07 172.824 58.06 172.584 58.06C172.344 58.06 172.094 58.07 171.834 58.09L166.434 44.8C166.134 44.04 165.824 43.57 165.504 43.39C165.184 43.21 164.914 43.12 164.694 43.12V42.49C165.254 42.53 165.834 42.57 166.434 42.61C167.034 42.63 167.694 42.64 168.414 42.64C169.034 42.64 169.684 42.63 170.364 42.61C171.064 42.57 171.714 42.53 172.314 42.49V43.12C171.874 43.12 171.474 43.15 171.114 43.21C170.774 43.27 170.544 43.43 170.424 43.69C170.304 43.93 170.354 44.36 170.574 44.98L174.174 54.31L173.904 54.64L176.634 47.23C176.974 46.29 177.114 45.53 177.054 44.95C176.994 44.37 176.774 43.93 176.394 43.63C176.034 43.33 175.514 43.16 174.834 43.12V42.49C175.174 42.51 175.494 42.53 175.794 42.55C176.114 42.57 176.424 42.59 176.724 42.61C177.044 42.61 177.344 42.61 177.624 42.61C178.044 42.61 178.454 42.6 178.854 42.58C179.274 42.56 179.624 42.53 179.904 42.49ZM187.893 42.07C189.653 42.07 191.033 42.6 192.033 43.66C193.033 44.72 193.533 46.41 193.533 48.73H183.423L183.393 48.16H190.053C190.093 47.18 190.033 46.28 189.873 45.46C189.713 44.62 189.453 43.95 189.093 43.45C188.753 42.95 188.303 42.7 187.743 42.7C186.983 42.7 186.323 43.15 185.763 44.05C185.203 44.93 184.853 46.38 184.713 48.4L184.833 48.58C184.793 48.84 184.763 49.12 184.743 49.42C184.743 49.72 184.743 50.02 184.743 50.32C184.743 51.7 184.943 52.84 185.343 53.74C185.743 54.64 186.263 55.3 186.903 55.72C187.543 56.14 188.203 56.35 188.883 56.35C189.343 56.35 189.813 56.28 190.293 56.14C190.773 56 191.243 55.74 191.703 55.36C192.163 54.98 192.583 54.44 192.963 53.74L193.533 53.98C193.313 54.68 192.943 55.38 192.423 56.08C191.923 56.76 191.273 57.32 190.473 57.76C189.673 58.2 188.733 58.42 187.653 58.42C186.293 58.42 185.093 58.12 184.053 57.52C183.013 56.92 182.203 56.03 181.623 54.85C181.043 53.65 180.753 52.19 180.753 50.47C180.753 48.65 181.053 47.12 181.653 45.88C182.273 44.64 183.123 43.7 184.203 43.06C185.283 42.4 186.513 42.07 187.893 42.07ZM205.322 42.07C205.942 42.07 206.452 42.2 206.852 42.46C207.272 42.72 207.582 43.05 207.782 43.45C207.982 43.85 208.082 44.27 208.082 44.71C208.082 45.37 207.882 45.92 207.482 46.36C207.102 46.8 206.592 47.02 205.952 47.02C205.352 47.02 204.862 46.86 204.482 46.54C204.102 46.22 203.912 45.78 203.912 45.22C203.912 44.72 204.032 44.3 204.272 43.96C204.532 43.62 204.822 43.35 205.142 43.15C204.922 43.03 204.672 42.99 204.392 43.03C203.912 43.07 203.472 43.24 203.072 43.54C202.672 43.84 202.332 44.21 202.052 44.65C201.772 45.09 201.552 45.56 201.392 46.06C201.252 46.56 201.182 47.04 201.182 47.5V54.91C201.182 55.89 201.432 56.55 201.932 56.89C202.432 57.21 203.162 57.37 204.122 57.37V58C203.662 57.98 202.992 57.96 202.112 57.94C201.252 57.9 200.352 57.88 199.412 57.88C198.632 57.88 197.852 57.9 197.072 57.94C196.312 57.96 195.742 57.98 195.362 58V57.37C196.102 57.37 196.622 57.22 196.922 56.92C197.242 56.62 197.402 56.05 197.402 55.21V45.76C197.402 44.86 197.252 44.2 196.952 43.78C196.672 43.34 196.142 43.12 195.362 43.12V42.49C196.002 42.55 196.622 42.58 197.222 42.58C197.962 42.58 198.662 42.55 199.322 42.49C200.002 42.41 200.622 42.3 201.182 42.16V45.28C201.422 44.72 201.732 44.2 202.112 43.72C202.512 43.24 202.982 42.85 203.522 42.55C204.082 42.23 204.682 42.07 205.322 42.07ZM241.045 36.76V37.36C240.405 37.38 239.915 37.46 239.575 37.6C239.235 37.72 239.005 37.96 238.885 38.32C238.785 38.66 238.735 39.2 238.735 39.94V54.82C238.735 55.54 238.795 56.08 238.915 56.44C239.035 56.8 239.255 57.04 239.575 57.16C239.915 57.28 240.405 57.36 241.045 57.4V58C240.525 57.96 239.865 57.94 239.065 57.94C238.265 57.92 237.455 57.91 236.635 57.91C235.735 57.91 234.885 57.92 234.085 57.94C233.305 57.94 232.675 57.96 232.195 58V57.4C232.875 57.36 233.385 57.28 233.725 57.16C234.085 57.04 234.325 56.8 234.445 56.44C234.565 56.08 234.625 55.54 234.625 54.82V38.5L234.835 38.53L227.395 58.09H226.915L218.995 38.68V53.56C218.995 54.52 219.055 55.27 219.175 55.81C219.295 56.33 219.555 56.71 219.955 56.95C220.375 57.17 221.005 57.32 221.845 57.4V58C221.465 57.96 220.975 57.94 220.375 57.94C219.775 57.92 219.205 57.91 218.665 57.91C218.185 57.91 217.695 57.92 217.195 57.94C216.715 57.94 216.315 57.96 215.995 58V57.4C216.655 57.32 217.145 57.17 217.465 56.95C217.805 56.73 218.025 56.37 218.125 55.87C218.245 55.37 218.305 54.68 218.305 53.8V39.94C218.305 39.2 218.245 38.66 218.125 38.32C218.025 37.96 217.805 37.72 217.465 37.6C217.145 37.46 216.655 37.38 215.995 37.36V36.76C216.315 36.78 216.715 36.8 217.195 36.82C217.695 36.84 218.185 36.85 218.665 36.85C219.405 36.85 220.125 36.84 220.825 36.82C221.525 36.8 222.145 36.78 222.685 36.76L229.135 52.87L228.475 53.41L234.745 36.85C235.045 36.85 235.355 36.85 235.675 36.85C236.015 36.85 236.335 36.85 236.635 36.85C237.455 36.85 238.265 36.84 239.065 36.82C239.865 36.8 240.525 36.78 241.045 36.76ZM250.004 42.07C251.384 42.07 252.604 42.35 253.664 42.91C254.744 43.45 255.594 44.32 256.214 45.52C256.854 46.72 257.174 48.3 257.174 50.26C257.174 52.22 256.854 53.8 256.214 55C255.594 56.2 254.744 57.07 253.664 57.61C252.604 58.15 251.384 58.42 250.004 58.42C248.624 58.42 247.394 58.15 246.314 57.61C245.234 57.07 244.384 56.2 243.764 55C243.144 53.8 242.834 52.22 242.834 50.26C242.834 48.3 243.144 46.72 243.764 45.52C244.384 44.32 245.234 43.45 246.314 42.91C247.394 42.35 248.624 42.07 250.004 42.07ZM250.004 42.67C249.064 42.67 248.294 43.27 247.694 44.47C247.114 45.65 246.824 47.58 246.824 50.26C246.824 52.94 247.114 54.87 247.694 56.05C248.294 57.23 249.064 57.82 250.004 57.82C250.924 57.82 251.684 57.23 252.284 56.05C252.884 54.87 253.184 52.94 253.184 50.26C253.184 47.58 252.884 45.65 252.284 44.47C251.684 43.27 250.924 42.67 250.004 42.67ZM269.101 42.07C269.721 42.07 270.231 42.2 270.631 42.46C271.051 42.72 271.361 43.05 271.561 43.45C271.761 43.85 271.861 44.27 271.861 44.71C271.861 45.37 271.661 45.92 271.261 46.36C270.881 46.8 270.371 47.02 269.731 47.02C269.131 47.02 268.641 46.86 268.261 46.54C267.881 46.22 267.691 45.78 267.691 45.22C267.691 44.72 267.811 44.3 268.051 43.96C268.311 43.62 268.601 43.35 268.921 43.15C268.701 43.03 268.451 42.99 268.171 43.03C267.691 43.07 267.251 43.24 266.851 43.54C266.451 43.84 266.111 44.21 265.831 44.65C265.551 45.09 265.331 45.56 265.171 46.06C265.031 46.56 264.961 47.04 264.961 47.5V54.91C264.961 55.89 265.211 56.55 265.711 56.89C266.211 57.21 266.941 57.37 267.901 57.37V58C267.441 57.98 266.771 57.96 265.891 57.94C265.031 57.9 264.131 57.88 263.191 57.88C262.411 57.88 261.631 57.9 260.851 57.94C260.091 57.96 259.521 57.98 259.141 58V57.37C259.881 57.37 260.401 57.22 260.701 56.92C261.021 56.62 261.181 56.05 261.181 55.21V45.76C261.181 44.86 261.031 44.2 260.731 43.78C260.451 43.34 259.921 43.12 259.141 43.12V42.49C259.781 42.55 260.401 42.58 261.001 42.58C261.741 42.58 262.441 42.55 263.101 42.49C263.781 42.41 264.401 42.3 264.961 42.16V45.28C265.201 44.72 265.511 44.2 265.891 43.72C266.291 43.24 266.761 42.85 267.301 42.55C267.861 42.23 268.461 42.07 269.101 42.07ZM280.002 42.07C281.762 42.07 283.142 42.6 284.142 43.66C285.142 44.72 285.642 46.41 285.642 48.73H275.532L275.502 48.16H282.162C282.202 47.18 282.142 46.28 281.982 45.46C281.822 44.62 281.562 43.95 281.202 43.45C280.862 42.95 280.412 42.7 279.852 42.7C279.092 42.7 278.432 43.15 277.872 44.05C277.312 44.93 276.962 46.38 276.822 48.4L276.942 48.58C276.902 48.84 276.872 49.12 276.852 49.42C276.852 49.72 276.852 50.02 276.852 50.32C276.852 51.7 277.052 52.84 277.452 53.74C277.852 54.64 278.372 55.3 279.012 55.72C279.652 56.14 280.312 56.35 280.992 56.35C281.452 56.35 281.922 56.28 282.402 56.14C282.882 56 283.352 55.74 283.812 55.36C284.272 54.98 284.692 54.44 285.072 53.74L285.642 53.98C285.422 54.68 285.052 55.38 284.532 56.08C284.032 56.76 283.382 57.32 282.582 57.76C281.782 58.2 280.842 58.42 279.762 58.42C278.402 58.42 277.202 58.12 276.162 57.52C275.122 56.92 274.312 56.03 273.732 54.85C273.152 53.65 272.862 52.19 272.862 50.47C272.862 48.65 273.162 47.12 273.762 45.88C274.382 44.64 275.232 43.7 276.312 43.06C277.392 42.4 278.622 42.07 280.002 42.07Z" fill="black"/>
<defs>
<filter id="filter0_d_16_17" x="0" y="0" width="380" height="112" filterUnits="userSpaceOnUse" color-interpolation-filters="sRGB">
<feFlood flood-opacity="0" result="BackgroundImageFix"/>
<feColorMatrix in="SourceAlpha" type="matrix" values="0 0 0 0 0 0 0 0 0 0 0 0 0 0 0 0 0 0 127 0" result="hardAlpha"/>
<feOffset dx="5" dy="10"/>
<feGaussianBlur stdDeviation="7.5"/>
<feComposite in2="hardAlpha" operator="out"/>
<feColorMatrix type="matrix" values="0 0 0 0 0 0 0 0 0 0 0 0 0 0 0 0 0 0 0.25 0"/>
<feBlend mode="normal" in2="BackgroundImageFix" result="effect1_dropShadow_16_17"/>
<feBlend mode="normal" in="SourceGraphic" in2="effect1_dropShadow_16_17" result="shape"/>
</filter>
</defs>
</svg>

